<svg height="48" viewBox="0 0 95 48" width="95" xmlns="http://www.w3.org/2000/svg"><path d="m.4 23.1c.3-1.8 1.9-3 4-3 2.5 0 4.5 1.1 4.5 4.4v6.3h-2.2l-.2-1.3c-.8.9-1.8 1.5-3.3 1.5-1.8 0-3.2-1.1-3.2-3.2s1.9-3.5 4.5-3.5h1.8v-.4c0-1.2-.9-1.6-1.9-1.6-.8 0-1.5.3-1.8 1.2zm3.4 5.7c1.2 0 2.5-.8 2.5-2.2v-.2h-1.7c-1.2 0-1.8.4-1.8 1.4 0 .4.4 1 1 1zm47.3-5.7c.4-1.8 1.9-3 4.1-3 2.4 0 4.4 1.1 4.4 4.4v6.3h-2.2l-.2-1.3c-.8.9-1.8 1.5-3.3 1.5-1.8 0-3.2-1.1-3.2-3.2s1.9-3.5 4.5-3.5h1.8v-.4c0-1.2-.9-1.6-1.9-1.6-.8 0-1.5.3-1.8 1.2zm3.5 5.7c1.2 0 2.4-.8 2.4-2.2v-.2h-1.8c-1.1 0-1.8.4-1.8 1.4.1.4.5 1 1.2 1zm7.4 2.1v-10.7h2.6v1.8c.7-1.3 1.9-1.9 3.1-1.9.4 0 .8.1 1.2.2l-.4 2.4c-.4-.2-.7-.3-1.1-.3-1.5 0-2.8 1.3-2.8 4.6v3.8zm12.5-10.8c1.1 0 2.1.5 2.6 1.1v-5.2h2.6v14.9h-2.6v-1.1c-.4.5-1.3 1.3-2.6 1.3-3.1 0-4.7-2.3-4.7-5.5s1.6-5.5 4.7-5.5zm.4 8.7c1.4 0 2.5-1.2 2.5-3.2 0-2.1-1.1-3.3-2.5-3.3-1.3 0-2.4 1.2-2.4 3.3 0 2 1.1 3.2 2.4 3.2zm14.2-7-1.5 1.4c-.5-.7-1.2-.9-1.8-.9-.5 0-1 .3-1 .8s.4.8 1 1c1.5.6 3.9 1 3.9 3.3 0 1.9-1.5 3.5-3.8 3.5-2.2 0-3.7-1.6-4.2-2.9l2.1-1.1c.4 1 1.1 1.7 2.2 1.7.8 0 1.3-.4 1.3-1.1 0-.9-1.3-1.1-2.6-1.6-1.2-.5-2.2-1.2-2.2-2.8 0-1.7 1.4-3.1 3.4-3.1 1.3 0 2.6.8 3.2 1.8zm-54.2-1.6-1.9 7.4-1.8-7.4h-2.4l-1.8 7.4-1.4-4.3-.2.5-.8 2.8 1.3 4.3h2.3l1.8-6.9 1.8 6.9h2.4l3.3-10.7zm12.6 0-1.9 7.4-1.8-7.4h-2.4l-1.8 7.4-1.5-4.3-.2.5-.8 2.8 1.4 4.3h2.3l1.8-6.9 1.8 6.9h2.3l3.4-10.7zm-22.5 0-3.4 10.6h-2.3l-1.8-6.8-1.8 6.9h-2.3l-3.4-10.6h2.6l1.9 7.3 1.8-7.3h2.5l1.8 7.3 1.9-7.3zm68.1 7.2c1 0 1.7.8 1.7 1.8s-.7 1.7-1.7 1.7-1.8-.7-1.8-1.7.8-1.8 1.8-1.8z"/></svg>