<svg xmlns="http://www.w3.org/2000/svg" width="95" height="48" viewBox="0 0 95 48"><path d="M0.4 23.1C0.7 21.3 2.3 20.1 4.4 20.1 6.9 20.1 8.9 21.2 8.9 24.5V30.8H6.7L6.5 29.5C5.7 30.4 4.7 31 3.2 31 1.4 31 0 29.9 0 27.8 0 25.7 1.9 24.3 4.5 24.3H6.3V23.9C6.3 22.7 5.4 22.3 4.4 22.3 3.6 22.3 2.9 22.6 2.6 23.5L0.4 23.1ZM3.8 28.8C5 28.8 6.3 28 6.3 26.6V26.4H4.6C3.4 26.4 2.8 26.8 2.8 27.8 2.8 28.2 3.2 28.8 3.8 28.8ZM51.1 23.1C51.5 21.3 53 20.1 55.2 20.1 57.6 20.1 59.6 21.2 59.6 24.5V30.8H57.4L57.2 29.5C56.4 30.4 55.4 31 53.9 31 52.1 31 50.7 29.9 50.7 27.8 50.7 25.7 52.6 24.3 55.2 24.3H57V23.9C57 22.7 56.1 22.3 55.1 22.3 54.3 22.3 53.6 22.6 53.3 23.5L51.1 23.1ZM54.6 28.8C55.8 28.8 57 28 57 26.6V26.4H55.2C54.1 26.4 53.4 26.8 53.4 27.8 53.5 28.2 53.9 28.8 54.6 28.8ZM62 30.9V20.2H64.6V22C65.3 20.7 66.5 20.1 67.7 20.1 68.1 20.1 68.5 20.2 68.9 20.3L68.5 22.7C68.1 22.5 67.8 22.4 67.4 22.4 65.9 22.4 64.6 23.7 64.6 27V30.8L62 30.9ZM74.5 20.1C75.6 20.1 76.6 20.6 77.1 21.2V16H79.7V30.9H77.1V29.8C76.7 30.3 75.8 31.1 74.5 31.1 71.4 31.1 69.8 28.8 69.8 25.6 69.8 22.4 71.4 20.1 74.5 20.1ZM74.9 28.8C76.3 28.8 77.4 27.6 77.4 25.6 77.4 23.5 76.3 22.3 74.9 22.3 73.6 22.3 72.5 23.5 72.5 25.6 72.5 27.6 73.6 28.8 74.9 28.8ZM89.1 21.8L87.6 23.2C87.1 22.5 86.4 22.3 85.8 22.3 85.3 22.3 84.8 22.6 84.8 23.1 84.8 23.6 85.2 23.9 85.8 24.1 87.3 24.7 89.7 25.1 89.7 27.4 89.7 29.3 88.2 30.9 85.9 30.9 83.7 30.9 82.2 29.3 81.7 28L83.8 26.9C84.2 27.9 84.9 28.6 86 28.6 86.8 28.6 87.3 28.2 87.3 27.5 87.3 26.6 86 26.4 84.7 25.9 83.5 25.4 82.5 24.7 82.5 23.1 82.5 21.4 83.9 20 85.9 20 87.2 20 88.5 20.8 89.1 21.8ZM34.9 20.2L33 27.6 31.2 20.2H28.8L27 27.6 25.6 23.3 25.4 23.8 24.6 26.6 25.9 30.9H28.2L30 24 31.8 30.9H34.2L37.5 20.2H34.9ZM47.5 20.2L45.6 27.6 43.8 20.2H41.4L39.6 27.6 38.1 23.3 37.9 23.8 37.1 26.6 38.5 30.9H40.8L42.6 24 44.4 30.9H46.7L50.1 20.2H47.5ZM25 20.2L21.6 30.8H19.3L17.5 24 15.7 30.9H13.4L10 20.3H12.6L14.5 27.6 16.3 20.3H18.8L20.6 27.6 22.5 20.3 25 20.2ZM93.1 27.4C94.1 27.4 94.8 28.2 94.8 29.2 94.8 30.2 94.1 30.9 93.1 30.9 92.1 30.9 91.3 30.2 91.3 29.2 91.3 28.2 92.1 27.4 93.1 27.4Z"/></svg>