<svg height="48" viewBox="0 0 51 48" width="51" xmlns="http://www.w3.org/2000/svg"><path d="m43 18.2c.2 0 .4.1.6.2.1.1.3.2.4.4.1.1.1.3.1.5v3.2h3c.3 0 .6.1.8.3s.3.5.3.8c0 .2-.1.5-.3.7s-.5.3-.8.3h-3v3c0 .3-.1.6-.3.8s-.5.3-.8.3h-8.4c-.3 0-.5-.1-.7-.3s-.4-.5-.4-.8v-4.1c.1-.3.2-.5.4-.7s.5-.3.7-.3h7.3v-2.1h-8.4l-4 7.5c0 .2-.1.4-.3.5-.2.2-.4.3-.6.3-.2.1-.4 0-.6-.1s-.4-.2-.5-.4c-.1-.1-.1-.1-.1-.2l-3.2-6.2-3.2 6.1c-.1.3-.3.6-.6.7-.3.2-.6.2-.8.1-.3-.1-.5-.3-.7-.5 0-.1 0-.1-.1-.2l-3.8-7.6h-6.5v2.1h5.3c.2 0 .5.1.7.3s.4.5.4.8c0 .2-.2.5-.4.7s-.5.3-.7.3h-5.3v3.1c0 .2-.1.5-.3.7s-.5.3-.7.3c-.3 0-.6-.1-.8-.3s-.3-.5-.3-.7v-3.1h-3.1c-.3 0-.5-.1-.7-.3s-.4-.5-.4-.7c0-.3.2-.6.4-.8s.4-.3.7-.3h3.1v-3.2c0-.2 0-.4.1-.5.1-.2.3-.3.4-.4.2-.1.4-.2.5-.2h8.2c.2 0 .4.1.6.2s.4.3.5.5l3.2 6.3 3.2-6c.2-.4.3-.7.6-.8.2-.1.3-.1.5-.1.3 0 .5.1.7.2.2.2.4.4.5.6l3 6.1 3.5-6.3c0-.2.2-.3.3-.4.2-.2.5-.3.7-.3zm-7.3 8.3h6.2v-1.9h-6.2zm7.3-10.5h-10.1c-.7 0-1.4.2-2 .7-.4.3-.7.6-1 1.1l-1.4 2.6s-1.6-3.2-2.1-3.6-1.1-.7-1.7-.7c-.7-.1-1.3 0-1.9.3-.9.4-1.4 1.1-1.8 2l-1 2-1.3-2.5c-.3-.6-.8-1-1.3-1.4-.5-.3-1.1-.5-1.8-.5h-8.2c-.4 0-.8.1-1.2.3-.4.1-.8.4-1.1.7s-.6.7-.7 1.1c-.2.4-.3.8-.3 1.2v.9h-.8c-.8 0-1.7.4-2.3 1s-1 1.5-1 2.4c0 .8.4 1.7 1 2.3s1.5 1 2.3 1h.8v.8c0 .8.4 1.7 1 2.3s1.5.9 2.4.9c.8 0 1.7-.3 2.3-.9s1-1.5 1-2.3v-.8h3c.6 0 1.2-.2 1.7-.5l1.3 2.6c.1.1.2.2.2.4.5.7 1.2 1.2 1.9 1.4.8.3 1.7.2 2.4-.1.9-.4 1.5-1.1 1.9-1.9l1-2.2 1.2 2.4c.1.4.4.7.7 1.1.3.3.7.5 1.2.7.4.1.8.2 1.3.2.4 0 .9-.2 1.3-.3.7-.4 1.3-1.1 1.6-1.8.3.6.7 1.1 1.3 1.5.5.3 1.2.5 1.8.5h8.4c.5 0 .9 0 1.3-.2s.8-.4 1.1-.7.5-.7.7-1.1.3-.8.3-1.2v-.8h.7c.9 0 1.8-.4 2.4-1s1-1.5 1-2.3c0-.9-.4-1.8-1-2.4s-1.5-1-2.4-1h-.7v-.9c0-.4-.1-.8-.3-1.2-.1-.4-.4-.8-.7-1.1s-.7-.6-1.1-.7c-.4-.2-.8-.3-1.3-.3z"/></svg>