<svg xmlns="http://www.w3.org/2000/svg" width="51" height="48" viewBox="0 0 51 48"><path d="M43 18.2C43.2 18.2 43.4 18.3 43.6 18.4 43.7 18.5 43.9 18.6 44 18.8 44.1 18.9 44.1 19.1 44.1 19.3V22.5H47.1C47.4 22.5 47.7 22.6 47.9 22.8 48.1 23 48.2 23.3 48.2 23.6 48.2 23.8 48.1 24.1 47.9 24.3 47.7 24.5 47.4 24.6 47.1 24.6H44.1V27.6C44.1 27.9 44 28.2 43.8 28.4 43.6 28.6 43.3 28.7 43 28.7H34.6C34.3 28.7 34.1 28.6 33.9 28.4 33.7 28.2 33.5 27.9 33.5 27.6V23.5C33.6 23.2 33.7 23 33.9 22.8 34.1 22.6 34.4 22.5 34.6 22.5H41.9V20.4H33.5L29.5 27.9C29.5 28.1 29.4 28.3 29.2 28.4 29 28.6 28.8 28.7 28.6 28.7 28.4 28.8 28.2 28.7 28 28.6 27.8 28.5 27.6 28.4 27.5 28.2 27.4 28.1 27.4 28.1 27.4 28L24.2 21.8 21 27.9C20.9 28.2 20.7 28.5 20.4 28.6 20.1 28.8 19.8 28.8 19.6 28.7 19.3 28.6 19.1 28.4 18.9 28.2 18.9 28.1 18.9 28.1 18.8 28L15 20.4H8.5V22.5H13.8C14 22.5 14.3 22.6 14.5 22.8 14.7 23 14.9 23.3 14.9 23.6 14.9 23.8 14.7 24.1 14.5 24.3 14.3 24.5 14 24.6 13.8 24.6H8.5V27.7C8.5 27.9 8.4 28.2 8.2 28.4 8 28.6 7.7 28.7 7.5 28.7 7.2 28.7 6.9 28.6 6.7 28.4 6.5 28.2 6.4 27.9 6.4 27.7V24.6H3.3C3 24.6 2.8 24.5 2.6 24.3 2.4 24.1 2.2 23.8 2.2 23.6 2.2 23.3 2.4 23 2.6 22.8 2.8 22.6 3 22.5 3.3 22.5H6.4V19.3C6.4 19.1 6.4 18.9 6.5 18.8 6.6 18.6 6.8 18.5 6.9 18.4 7.1 18.3 7.3 18.2 7.4 18.2H15.6C15.8 18.2 16 18.3 16.2 18.4 16.4 18.5 16.6 18.7 16.7 18.9L19.9 25.2 23.1 19.2C23.3 18.8 23.4 18.5 23.7 18.4 23.9 18.3 24 18.3 24.2 18.3 24.5 18.3 24.7 18.4 24.9 18.5 25.1 18.7 25.3 18.9 25.4 19.1L28.4 25.2 31.9 18.9C31.9 18.7 32.1 18.6 32.2 18.5 32.4 18.3 32.7 18.2 32.9 18.2H43ZM35.7 26.5H41.9V24.6H35.7V26.5ZM43 16H32.9C32.2 16 31.5 16.2 30.9 16.7 30.5 17 30.2 17.3 29.9 17.8L29.9 17.8 29.9 17.8 28.5 20.4C28.5 20.4 26.9 17.2 26.4 16.8 25.9 16.4 25.3 16.1 24.7 16.1 24 16 23.4 16.1 22.8 16.4 21.9 16.8 21.4 17.5 21 18.4L20 20.4 18.7 17.9C18.4 17.3 17.9 16.9 17.4 16.5 16.9 16.2 16.3 16 15.6 16H7.4C7 16 6.6 16.1 6.2 16.3 5.8 16.4 5.4 16.7 5.1 17 4.8 17.3 4.5 17.7 4.4 18.1 4.2 18.5 4.1 18.9 4.1 19.3V20.2H3.3C2.5 20.2 1.6 20.6 1 21.2 0.4 21.8 0 22.7 0 23.6 0 24.4 0.4 25.3 1 25.9 1.6 26.5 2.5 26.9 3.3 26.9H4.1V27.7C4.1 28.5 4.5 29.4 5.1 30 5.7 30.6 6.6 30.9 7.5 30.9 8.3 30.9 9.2 30.6 9.8 30 10.4 29.4 10.8 28.5 10.8 27.7V26.9H13.8C14.4 26.9 15 26.7 15.5 26.4L16.8 29C16.9 29.1 17 29.2 17 29.4 17.5 30.1 18.2 30.6 18.9 30.8 19.7 31.1 20.6 31 21.3 30.7 22.2 30.3 22.8 29.6 23.2 28.8L24.2 26.6 25.4 29C25.5 29.4 25.8 29.7 26.1 30.1 26.4 30.4 26.8 30.6 27.3 30.8 27.7 30.9 28.1 31 28.6 31 29 31 29.5 30.8 29.9 30.7 30.6 30.3 31.2 29.6 31.5 28.9 31.8 29.5 32.2 30 32.8 30.4 33.3 30.7 34 30.9 34.6 30.9H43C43.5 30.9 43.9 30.9 44.3 30.7 44.7 30.5 45.1 30.3 45.4 30 45.7 29.7 45.9 29.3 46.1 28.9 46.3 28.5 46.4 28.1 46.4 27.7V26.9H47.1C48 26.9 48.9 26.5 49.5 25.9 50.1 25.3 50.5 24.4 50.5 23.6 50.5 22.7 50.1 21.8 49.5 21.2 48.9 20.6 48 20.2 47.1 20.2H46.4V19.3C46.4 18.9 46.3 18.5 46.1 18.1 46 17.7 45.7 17.3 45.4 17 45.1 16.7 44.7 16.4 44.3 16.3 43.9 16.1 43.5 16 43 16V16Z"/></svg>