<svg height="48" viewBox="0 0 131 48" width="131" xmlns="http://www.w3.org/2000/svg"><path d="m19.2 32.2 3 5.3h8.5l-7.3-12.9zm0 0 11.5-20.5h-8.5l-6.6 11.8c-.2.3-.3.7-.3 1.1s.1.8.3 1.1zm-7.7-21.9-3-5.3h-8.5l7.2 12.9zm0 0-11.5 20.5h8.5l6.6-11.8c.2-.3.3-.7.3-1.1s-.1-.8-.3-1.1zm-5.1 6.1.8 1.5 4.3-7.6-.2-.3zm46.2 6.1v1.9h-6.8v4.7h6.1v1.8h-6.1v4.8h6.8v1.8h-8.7v-15zm6.9 9.8 3.7 5.2h-2.3l-2.5-3.8-2.5 3.8h-2.2l3.6-5.2-3.6-5h2.2l2.5 3.6 2.4-3.6h2.3zm10.3 5.5c-.7 0-1.4-.1-2-.5-.6-.2-1.1-.7-1.4-1.2h-.1l.1 1.4v4.5h-2v-14.7h1.9v1.4h.1c.3-.6.8-1 1.4-1.3.9-.4 1.9-.6 2.9-.4s1.9.7 2.5 1.5c1 1.1 1.5 2.5 1.5 3.9s-.5 2.8-1.5 3.8c-.4.5-.9.9-1.5 1.2s-1.2.4-1.9.4zm-.3-1.7c.5 0 .9-.1 1.3-.3s.8-.4 1-.8c.7-.7 1-1.7 1-2.6 0-1-.3-1.9-1-2.7-.3-.3-.6-.6-1-.7-.4-.2-.8-.3-1.3-.3-.4 0-.9.1-1.3.3-.4.1-.7.4-1 .7-.6.8-1 1.7-.9 2.7-.1 1 .3 1.9.9 2.7.3.3.6.5 1 .7s.9.3 1.3.3zm11.5 1.7c-.7 0-1.3-.1-2-.3-.6-.3-1.2-.7-1.7-1.2-.9-1-1.4-2.3-1.4-3.9s.4-2.9 1.4-3.9c.4-.5 1-.9 1.6-1.2.7-.3 1.3-.4 2-.4 1.5 0 2.7.5 3.6 1.5s1.4 2.4 1.4 4.1v.2h-8.1c0 .5.1.9.3 1.3.2.5.4.8.7 1.2.3.3.7.5 1.1.6.4.2.8.3 1.2.3 1.3 0 2.2-.6 2.9-1.9l1.7.9c-.4.8-1.1 1.5-1.9 2s-1.8.7-2.8.7zm-3-6.7h5.8c0-.3-.1-.6-.2-.9-.2-.3-.4-.6-.6-.8-.5-.5-1.2-.7-2.1-.7-.7 0-1.4.2-1.9.7-.5.4-.9 1.1-1 1.7zm9.6-3.8h1.9v1.6h.1c.5-1.3 1.7-1.9 3.5-1.9h.4v2l-.9-.1c-.4 0-.8.1-1.2.2-.3.2-.7.4-1 .7-.3.2-.5.6-.6.9-.2.4-.3.8-.2 1.1v5.7h-2zm12 10.4c-.8 0-1.5-.3-2.1-.8-.5-.5-.8-1.2-.8-2.2v-5.7h-1.8v-1.7h1.8v-3.2h1.9v3.2h2.5v1.7h-2.5v5.1c0 .7.1 1.2.4 1.4s.6.4.9.4c.2 0 .3 0 .5-.1.1 0 .2-.1.4-.1l.6 1.7c-.6.2-1.2.3-1.8.3zm11.4-3c0 .4-.1.8-.3 1.2s-.5.8-.9 1c-.7.6-1.7.9-2.9.9-1 .1-1.9-.2-2.7-.8-.8-.5-1.4-1.2-1.7-2.1l1.7-.7c.2.5.6 1 1.1 1.4.5.3 1 .5 1.6.5.5 0 1.1-.1 1.5-.4.4-.2.6-.6.6-.9 0-.7-.5-1.2-1.5-1.5l-1.7-.4c-2-.5-3-1.5-3-2.9 0-.4.1-.9.3-1.2.2-.4.5-.8.8-1 .8-.6 1.8-.9 2.9-.9.9 0 1.7.2 2.5.7.7.4 1.2 1 1.5 1.7l-1.7.7c-.2-.4-.5-.8-.9-1-.5-.2-1-.4-1.5-.4s-.9.2-1.4.4c-.1.1-.3.2-.4.4s-.1.4-.1.5c0 .6.5 1 1.6 1.3l1.5.4c2.1.5 3.1 1.5 3.1 3.1zm-44.4-18.7c-.3 0-.6 0-.9-.1-.2-.1-.4-.2-.6-.3m12-4.5v.1zm3.3 2.5v-7.5h2.3c1.2 0 2.1.4 2.8 1.1.3.3.6.7.8 1.2.1.5.2 1 .2 1.5 0 1.1-.3 2-1 2.7s-1.6 1-2.8 1zm1-6.6v5.7h1.3c.9 0 1.6-.3 2.1-.8s.7-1.1.7-2-.2-1.6-.7-2.1-1.2-.7-2.1-.8zm8.2 6.8c-.3 0-.7-.1-1-.2s-.6-.3-.8-.6c-.5-.5-.8-1.2-.8-2 0-.7.3-1.4.7-1.9.3-.2.5-.4.9-.6.3-.1.6-.2.9-.2.4 0 .7.1 1 .2s.6.3.9.6c.4.4.6 1.1.6 2v.1h-4c0 .2.1.5.1.7.1.2.3.4.4.5.2.2.3.3.5.4s.4.1.7.1c.6 0 1.1-.3 1.4-.9l.9.4c-.3.4-.6.8-1 1s-.9.4-1.4.4zm-1.5-3.4h2.9c0-.1 0-.3-.1-.5-.1-.1-.2-.2-.3-.4-.3-.2-.7-.3-1.1-.3-.3 0-.6.1-.9.3-.3.3-.4.6-.5.9zm7.2 3.2h-1l-2-5.1h1l1.5 4 1.6-4h1zm4.8.2c-.3 0-.6-.1-1-.2-.3-.1-.6-.3-.8-.6-.5-.5-.8-1.2-.7-2-.1-.7.2-1.4.7-1.9.2-.2.5-.4.8-.6.3-.1.6-.2 1-.2.3 0 .6.1 1 .2.3.1.5.3.8.6.4.4.7 1.1.7 2v.1h-4.1c0 .2.1.5.2.7s.2.4.3.5c.2.2.4.3.6.4s.4.1.6.1c.6 0 1.1-.3 1.4-.9l.9.4c-.2.4-.6.8-1 1s-.9.4-1.4.4zm-1.5-3.4h2.9c0-.1 0-.3-.1-.5-.1-.1-.2-.2-.3-.4-.3-.2-.7-.3-1-.3-.4 0-.7.1-1 .3-.2.3-.4.6-.5.9zm5.8-4.3v7.5h-1v-7.5zm.8 4.9c0-.3.1-.7.2-1s.3-.6.6-.9c.2-.3.5-.5.8-.6.4-.1.7-.2 1.1-.2.3 0 .7.1 1 .2s.6.3.8.6c.3.3.5.6.6.9s.2.7.2 1c0 .4-.1.8-.2 1.1s-.3.6-.6.9c-.2.3-.5.5-.8.6s-.7.2-1 .2c-.4 0-.7-.1-1.1-.2-.3-.1-.6-.3-.8-.6-.3-.3-.5-.6-.6-.9s-.2-.7-.2-1.1zm1 0c0 .5.1 1 .5 1.4.1.1.3.3.5.4.2 0 .4.1.7.1.2 0 .4-.1.6-.1.2-.1.4-.3.5-.4.4-.4.6-.9.5-1.4 0-.4-.1-.9-.5-1.3-.1-.1-.3-.3-.5-.4s-.4-.1-.6-.1c-.3 0-.5 0-.7.1s-.4.3-.5.4c-.4.4-.5.9-.5 1.3zm7.8 2.8c-.4 0-.7-.1-1.1-.3-.2-.1-.5-.3-.7-.6v.7 2.3h-.9v-7.4h.9v.7c.2-.3.5-.5.8-.6.4-.3.9-.3 1.4-.2s1 .3 1.3.7c.5.5.7 1.2.7 1.9 0 .8-.2 1.4-.7 2-.2.2-.5.4-.8.6-.3.1-.6.2-.9.2zm-.2-.9c.2 0 .5-.1.7-.1.2-.1.3-.3.5-.4.3-.4.5-.9.4-1.4.1-.4-.1-.9-.4-1.3-.2-.1-.3-.3-.5-.4s-.5-.1-.7-.1-.4 0-.6.1-.4.3-.5.4c-.4.4-.5.9-.5 1.3 0 .5.1 1 .5 1.4.1.1.3.3.5.4.2 0 .4.1.6.1zm5.8.9c-.4 0-.7-.1-1-.2-.4-.1-.6-.3-.9-.6-.5-.5-.7-1.2-.7-2 0-.7.2-1.4.7-1.9.2-.2.5-.4.8-.6.3-.1.7-.2 1-.2s.7.1 1 .2.6.3.8.6c.5.4.7 1.1.7 2v.1h-4c0 .2 0 .5.1.7s.2.4.4.5c.1.2.3.3.5.4s.4.1.6.1c.6 0 1.1-.3 1.5-.9l.8.4c-.2.4-.5.8-.9 1-.5.2-.9.4-1.4.4zm-1.6-3.4h3c0-.1-.1-.3-.2-.5 0-.1-.1-.2-.3-.4-.3-.2-.6-.3-1-.3-.3 0-.7.1-.9.3-.3.3-.5.6-.6.9zm5.8 3.2h-.9v-5.1h.9v.8c.2-.3.4-.5.6-.7.3-.2.6-.3.9-.3s.5.1.7.2l-.3.9c-.1-.1-.3-.1-.5-.1s-.4.1-.5.1c-.2.1-.3.2-.5.4s-.4.6-.4 1zm6.6-1.4c0 .2-.1.4-.2.6s-.2.4-.4.5c-.4.3-.9.5-1.4.5s-1-.1-1.4-.4-.7-.6-.9-1.1l.9-.3c.1.2.3.5.5.7.3.1.5.2.8.2s.5 0 .8-.2c.1 0 .1-.1.2-.2 0-.1.1-.2.1-.2 0-.4-.3-.6-.8-.8l-.8-.2c-1-.2-1.5-.7-1.5-1.4 0-.2 0-.5.1-.7s.2-.3.4-.4c.4-.3.9-.5 1.4-.5.4 0 .9.1 1.3.3s.6.5.8.9l-.9.4c-.1-.2-.2-.4-.4-.5-.3-.2-.5-.2-.8-.2-.2 0-.4 0-.6.2-.1 0-.2.1-.3.2v.2c0 .3.2.5.8.7l.8.2c1 .2 1.5.7 1.5 1.5zm-82.9-2.7h3.6v.3c.1.2.1.3.1.4 0 .5-.1.9-.3 1.3-.1.5-.3.8-.6 1.2-.4.3-.8.6-1.2.8-.5.2-1.1.3-1.6.3s-1-.1-1.5-.3-.9-.5-1.3-.8c-.3-.4-.6-.8-.8-1.2-.2-.5-.3-1.1-.3-1.6s.1-1 .3-1.5.5-.9.8-1.3c.4-.3.8-.6 1.3-.8 1-.4 2.1-.4 3.1.1.5.1.9.4 1.2.8l-.9 1c-.4-.4-.9-.7-1.4-.8s-1 0-1.5.2c-.3.1-.5.2-.8.5-.2.2-.4.5-.5.8-.2.3-.2.7-.2 1 0 .4 0 .7.2 1.1.1.3.3.5.5.8.3.2.5.4.8.5.7.2 1.4.2 2 0 .3-.1.5-.3.7-.5.1-.1.3-.2.3-.4.2-.2.2-.4.3-.7h-2.3zm7-1.1c.4 0 .7 0 1.1.2.3.1.6.3.8.5.3.3.5.6.6.9s.2.7.2 1.1-.1.7-.2 1.1c-.1.3-.3.6-.6.8-.2.3-.5.5-.8.6-.7.3-1.5.3-2.2 0-.3-.1-.6-.3-.8-.6-.3-.2-.5-.5-.6-.8-.1-.4-.2-.7-.2-1.1s.1-.8.2-1.1.3-.6.6-.9c.2-.2.5-.4.8-.5.4-.2.7-.2 1.1-.2zm0 4.1c.4 0 .7-.1.9-.4.2-.1.3-.2.3-.4.2-.4.2-.8 0-1.2 0-.2-.1-.4-.3-.5-.1-.2-.4-.3-.6-.4-.3 0-.6 0-.8.1s-.3.2-.4.3c-.2.1-.3.3-.3.5-.2.4-.2.8 0 1.2 0 .2.1.3.3.4.1.2.2.3.4.3.2.1.3.1.5.1zm6-4.1c.3 0 .7 0 1.1.2.3.1.6.3.8.5.2.3.4.6.6.9.1.3.2.7.2 1.1s-.1.7-.2 1.1c-.2.3-.4.6-.6.8-.2.3-.5.5-.8.6-.7.3-1.5.3-2.2 0-.3-.1-.6-.3-.9-.6-.2-.2-.4-.5-.5-.8-.2-.4-.2-.7-.2-1.1s0-.8.2-1.1c.1-.3.3-.6.5-.9.3-.2.6-.4.9-.5.3-.2.7-.2 1.1-.2zm0 4.1c.3 0 .6-.1.9-.4.1-.1.2-.2.3-.4.1-.4.1-.8 0-1.2-.1-.2-.2-.4-.3-.5-.2-.2-.4-.3-.7-.4-.2 0-.5 0-.7.1s-.3.2-.5.3c-.1.1-.2.3-.3.5-.1.4-.1.8 0 1.2.1.2.2.3.3.4.2.2.3.3.5.3.1.1.3.1.5.1zm5.9 3.5c-.3 0-.7 0-1-.1-.2-.1-.5-.2-.7-.4-.2-.1-.4-.3-.5-.5-.2-.1-.3-.3-.3-.5l1.3-.5c0 .2.2.4.4.6.3.2.6.2.9.2.4 0 .7-.2.9-.4.2-.3.4-.7.4-1.1v-.4h-.1c-.2.2-.4.4-.7.5-.2.1-.6.2-.9.2s-.6-.1-.9-.2c-.2-.1-.5-.3-.7-.5-.5-.5-.8-1.2-.8-1.9 0-.4.1-.7.2-1.1.2-.3.4-.6.6-.8s.5-.4.7-.5c.3-.2.6-.2.9-.2s.7 0 .9.2c.3.1.5.3.7.5h.1v-.6h1.2v4.8c.1.3 0 .7-.2 1.1-.1.3-.3.6-.5.9-.2.2-.5.4-.8.5-.4.2-.8.2-1.1.2zm0-3.6c.2 0 .4 0 .5-.1.2-.1.3-.1.5-.3.1-.1.2-.2.3-.4 0-.2.1-.4.1-.6s-.1-.4-.1-.6c-.1-.2-.2-.3-.3-.4-.2-.2-.3-.2-.5-.3-.1-.1-.3-.1-.5-.1-.1 0-.3 0-.5.1-.1.1-.3.1-.4.3-.1.1-.2.2-.3.4s-.1.4-.1.6 0 .4.1.6.2.3.3.4c.1.2.3.2.4.3.2.1.4.1.5.1zm3.8 1.2v-7.4h1.4v7.4zm7.6-2.6c0 .5-.1.9-.3 1.4-.3.4-.7.8-1.1 1s-.7.3-1.1.3c-.3.1-.7 0-1 0-.3-.1-.6-.3-.9-.5-.6-.5-.9-1.1-1-1.9-.1-.7.1-1.4.5-1.9.2-.3.5-.5.8-.7s.7-.3 1-.4c.4 0 .7 0 1 .2.3.1.6.2.9.4.2.3.4.6.6.9l.1.1v.1s0 .1.1.1l-3.4 1.9c.1.1.3.2.4.3.2.1.3.2.5.2h.5c.1 0 .3-.1.4-.2.2-.1.4-.3.6-.5.1-.2.1-.5.1-.7zm-2-1.1c-.1-.1-.2-.2-.3-.2-.1-.1-.2-.2-.3-.2-.2 0-.3 0-.5 0-.1 0-.3.1-.5.2s-.4.3-.5.5c-.1.3-.2.6-.1.9z"/></svg>