<svg height="48" viewBox="0 0 74 48" width="74" xmlns="http://www.w3.org/2000/svg"><path d="m0 26.1v3.2c25.3-1.5 6.5-2.3 0-3.2zm0 5.4v3.2h.2c19.3-1.7 13.8-2.4-.2-3.2zm0-17.9c15.9-.6 16-1.5 7.7-2.6l1.5-1.8c10.2 1.6 9.5 4.2 2.2 5.4 2.5.9 11.1 2.5.7 5.6 1.7.5 11.3 2.9-.7 5 1.9.9 12 2.1.4 5.2 3 .5 10.7 2.1.6 5.4 3.8.4 4.2.5 5.3 2.3v6.9h4.6v-42h-22.3zm0 7.5v3.3c4.8-1 26.5-1.3 0-3.3zm0-5.6v3.5c14.9-.8 19.9-1.9 0-3.5zm27.8 5.5h.5v-6.8h2.6v-.5h-5.7v.5h2.6zm5-3.4h4.6v3.4h.6v-7.3h-.6v3.4h-4.6v-3.4h-.6v7.3h.6zm12.3 2.9h-4.7v-2.9h4.2v-.5h-4.2v-2.9h4.7v-.5h-5.2v7.3h5.2zm-14.7 13 1.6-4.8 1.7 4.8h2l2.8-8.3h-2.4l-1.5 4.8-1.6-4.8h-1.9l-1.6 4.8-1.5-4.8h-2.4l2.8 8.3zm8.1-4.3c0 2.7 1.8 4.4 4.5 4.4 1.7 0 2.9-.6 3.7-1.7l-1.7-1.3c-.6.6-1.1.8-1.9.8-.9 0-1.6-.5-1.8-1.4h5.7c0-.2 0-.4 0-.6 0-2.5-1.3-4.7-4.3-4.7-2.5 0-4.2 2-4.2 4.5zm4.2-2.2c.9 0 1.4.6 1.5 1.5h-2.9c.1-.9.7-1.5 1.4-1.5zm13.3 4.2v-.1c0-1.1-.6-1.7-1.6-2 .7-.3 1.3-.9 1.3-1.8 0-.3-.1-.5-.2-.8-.1-.2-.2-.4-.4-.6-.5-.5-1.2-.7-2.2-.7h-4.3v8.2h4.3c2 0 3.1-.8 3.1-2.2zm-5.1-4.2h1.5c.6 0 1 .3 1 .7 0 .5-.4.8-1.1.8h-1.4zm0 4.6v-1.5h1.7c.8 0 1.1.3 1.1.7 0 .5-.4.8-1.1.8zm14.3-.4v-.1c0-1.1-.7-1.7-1.7-2 .8-.3 1.3-.9 1.3-1.8 0-.3 0-.5-.1-.8-.1-.2-.3-.4-.4-.6-.5-.5-1.2-.7-2.3-.7h-4.2v8.2h4.2c2 0 3.2-.8 3.2-2.2zm-5.2-4.2h1.5c.7 0 1 .3 1 .7 0 .5-.4.8-1 .8h-1.5zm0 4.6v-1.5h1.8c.7 0 1.1.3 1.1.7 0 .5-.4.8-1.1.8zm8.3 1.8h2.3v-3.1l3.1-5.1h-2.5l-1.7 3-1.7-3h-2.6l3.1 5.1zm-38.9 3.6-3.4 7.3h.5l1-2h4.3l.9 2h.6l-3.4-7.3zm-1.7 4.8 1.9-4.2 1.9 4.2zm13.1 1.7-2.1-6.5h-.4l-2.2 6.5-2.3-6.5h-.6l2.7 7.4h.4l2.2-6.4 2.1 6.4h.4l2.7-7.4h-.6zm6.4-6.5-3.4 7.3h.6l.9-2h4.3l.9 2h.6l-3.4-7.3zm-1.7 4.8 1.9-4.2 2 4.2zm12.5-2.7c0-.5-.2-1-.5-1.4-.5-.4-1.2-.7-2.1-.7h-3v7.3h.5v-3h2.4l2.3 3h.7l-2.4-3.1c1.2-.2 2.1-.9 2.1-2.1zm-5.1 1.7v-3.3h2.5c1.3 0 2.1.6 2.1 1.6 0 1.1-.9 1.7-2.2 1.7zm9.2-3.8h-2.5v7.3h2.5c2.2 0 3.8-1.6 3.8-3.6v-.1c0-2-1.6-3.6-3.8-3.6zm3.3 3.7c0 1.7-1.3 3.1-3.3 3.1h-1.9v-6.3h1.9c2 0 3.3 1.4 3.3 3.2zm4.5-.3c-1.7-.4-2.1-.8-2.1-1.6 0-.8.7-1.4 1.7-1.4.8 0 1.6.3 2.2.8l.4-.4c-.7-.6-1.6-.9-2.5-.9-1.4 0-2.4.8-2.4 1.9 0 1.2.7 1.7 2.5 2.1 1.6.3 2 .8 2 1.5v.1c0 .8-.7 1.4-1.8 1.4s-1.8-.3-2.6-1.1l-.4.4c.9.8 1.8 1.2 3 1.2 1.4 0 2.4-.8 2.4-2 0-1.1-.7-1.7-2.4-2z"/></svg>