<svg xmlns="http://www.w3.org/2000/svg" width="74" height="48" viewBox="0 0 74 48"><path d="M0 26.1V29.3C25.3 27.8 6.5 27 0 26.1ZM0 31.5V34.7L0.2 34.7C19.5 33 14 32.3 0 31.5ZM0 13.6C15.9 13 16 12.1 7.7 11L9.2 9.2C19.4 10.8 18.7 13.4 11.4 14.6 13.9 15.5 22.5 17.1 12.1 20.2 13.8 20.7 23.4 23.1 11.4 25.2 13.3 26.1 23.4 27.3 11.8 30.4 14.8 30.9 22.5 32.5 12.4 35.8 16.2 36.2 16.6 36.3 17.7 38.1V45H22.3V3H0V13.6ZM0 21.1V24.4C4.8 23.4 26.5 23.1 0 21.1ZM0 15.5V19C14.9 18.2 19.9 17.1 0 15.5ZM27.8 21H28.3V14.2H30.9V13.7H25.2V14.2H27.8V21ZM32.8 17.6H37.4V21H38V13.7H37.4V17.1H32.8V13.7H32.2V21H32.8V17.6ZM45.1 20.5H40.4V17.6H44.6V17.1H40.4V14.2H45.1V13.7H39.9V21H45.1V20.5ZM30.4 33.5L32 28.7 33.7 33.5H35.7L38.5 25.2H36.1L34.6 30 33 25.2H31.1L29.5 30 28 25.2H25.6L28.4 33.5H30.4ZM38.5 29.2C38.5 31.9 40.3 33.6 43 33.6 44.7 33.6 45.9 33 46.7 31.9L45 30.6C44.4 31.2 43.9 31.4 43.1 31.4 42.2 31.4 41.5 30.9 41.3 30H47C47 29.8 47 29.6 47 29.4 47 26.9 45.7 24.7 42.7 24.7 40.2 24.7 38.5 26.7 38.5 29.2V29.2ZM42.7 27C43.6 27 44.1 27.6 44.2 28.5H41.3C41.4 27.6 42 27 42.7 27ZM56 31.2V31.1C56 30 55.4 29.4 54.4 29.1 55.1 28.8 55.7 28.2 55.7 27.3V27.3C55.7 27 55.6 26.8 55.5 26.5 55.4 26.3 55.3 26.1 55.1 25.9 54.6 25.4 53.9 25.2 52.9 25.2H48.6V33.4H52.9C54.9 33.4 56 32.6 56 31.2ZM50.9 27H52.4C53 27 53.4 27.3 53.4 27.7V27.7C53.4 28.2 53 28.5 52.3 28.5H50.9L50.9 27ZM50.9 31.6V30.1H52.6C53.4 30.1 53.7 30.4 53.7 30.8V30.8C53.7 31.3 53.3 31.6 52.6 31.6H50.9ZM65.2 31.2V31.1C65.2 30 64.5 29.4 63.5 29.1 64.3 28.8 64.8 28.2 64.8 27.3V27.3C64.8 27 64.8 26.8 64.7 26.5 64.6 26.3 64.4 26.1 64.3 25.9 63.8 25.4 63.1 25.2 62 25.2H57.8V33.4H62C64 33.4 65.2 32.6 65.2 31.2ZM60 27H61.5C62.2 27 62.5 27.3 62.5 27.7V27.7C62.5 28.2 62.1 28.5 61.5 28.5H60V27ZM60 31.6V30.1H61.8C62.5 30.1 62.9 30.4 62.9 30.8V30.8C62.9 31.3 62.5 31.6 61.8 31.6H60ZM68.3 33.4H70.6V30.3L73.7 25.2H71.2L69.5 28.2 67.8 25.2H65.2L68.3 30.3V33.4ZM29.4 37L26 44.3H26.5L27.5 42.3H31.8L32.7 44.3H33.3L29.9 37H29.4ZM27.7 41.8L29.6 37.6 31.5 41.8H27.7ZM40.8 43.5L38.7 37H38.3L36.1 43.5 33.8 37H33.2L35.9 44.4H36.3L38.5 38 40.6 44.4H41L43.7 37H43.1L40.8 43.5ZM47.2 37L43.8 44.3H44.4L45.3 42.3H49.6L50.5 44.3H51.1L47.7 37H47.2ZM45.5 41.8L47.4 37.6 49.4 41.8H45.5ZM58 39.1V39.1C58 38.6 57.8 38.1 57.5 37.7 57 37.3 56.3 37 55.4 37H52.4V44.3H52.9V41.3H55.3L57.6 44.3H58.3L55.9 41.2C57.1 41 58 40.3 58 39.1ZM52.9 40.8V37.5H55.4C56.7 37.5 57.5 38.1 57.5 39.1V39.1C57.5 40.2 56.6 40.8 55.3 40.8L52.9 40.8ZM62.1 37H59.6V44.3H62.1C64.3 44.3 65.9 42.7 65.9 40.7V40.6C65.9 38.6 64.3 37 62.1 37ZM65.4 40.7C65.4 42.4 64.1 43.8 62.1 43.8H60.2V37.5H62.1C64.1 37.5 65.4 38.9 65.4 40.7V40.7ZM69.9 40.4C68.2 40 67.8 39.6 67.8 38.8V38.8C67.8 38 68.5 37.4 69.5 37.4 70.3 37.4 71.1 37.7 71.7 38.2L72.1 37.8C71.4 37.2 70.5 36.9 69.6 36.9 68.2 36.9 67.2 37.7 67.2 38.8V38.8C67.2 40 67.9 40.5 69.7 40.9 71.3 41.2 71.7 41.7 71.7 42.4V42.5C71.7 43.3 71 43.9 69.9 43.9 68.8 43.9 68.1 43.6 67.3 42.8L66.9 43.2C67.8 44 68.7 44.4 69.9 44.4 71.3 44.4 72.3 43.6 72.3 42.4V42.4C72.3 41.3 71.6 40.7 69.9 40.4Z"/></svg>