<svg height="48" viewBox="0 0 108 48" width="108" xmlns="http://www.w3.org/2000/svg"><path d="m25.4 33.9v7.8h-2.6v-19.3h6.6c.8 0 1.6.1 2.3.4.8.3 1.5.7 2 1.3.6.5 1 1.1 1.3 1.8s.5 1.5.5 2.3c0 .7-.2 1.5-.5 2.2s-.7 1.3-1.3 1.9c-1.1 1-2.7 1.6-4.2 1.6zm0-9.1v6.7h4.1c.5 0 .9-.1 1.3-.2.4-.2.8-.4 1.1-.8.4-.3.6-.6.8-1.1.2-.4.3-.8.3-1.3-.1-.9-.4-1.7-1.1-2.4-.6-.6-1.5-.9-2.4-.9zm16.7 3.3c1.6-.1 3.1.4 4.4 1.4.5.5.9 1.2 1.2 1.9s.4 1.4.3 2.1v8.2h-2.4v-1.9h-.1c-.4.7-1 1.3-1.7 1.7s-1.5.6-2.4.6c-1.3.1-2.6-.4-3.6-1.3-.5-.4-.8-.9-1.1-1.4-.3-.6-.4-1.2-.4-1.8s.1-1.2.4-1.8.7-1.1 1.2-1.5c1.2-.8 2.6-1.2 4.1-1.2 1.3 0 2.5.3 3.6.8v-.5c0-.4 0-.9-.2-1.2-.2-.4-.4-.7-.8-1-.6-.6-1.5-.9-2.4-.9-.6 0-1.3.1-1.8.4-.6.3-1.1.8-1.5 1.3l-2.1-1.4c.6-.8 1.4-1.5 2.3-2 .9-.4 2-.6 3-.5zm-3.2 9.5c0 .4.1.7.2 1 .2.3.4.5.6.7.6.4 1.3.7 2 .6 1 0 2-.4 2.8-1.1.3-.4.7-.8.9-1.2.2-.5.3-1 .3-1.5-.9-.7-2.1-1-3.2-.9-.9-.1-1.8.2-2.5.7-.3.2-.6.4-.8.7s-.3.7-.3 1zm11.9-9.1h2.4v2.1h.2c.7-1.7 2.2-2.5 4.5-2.5h.5v2.5l-1.1-.1c-1 0-2.1.4-2.8 1.1-.4.3-.7.8-.9 1.2-.2.5-.3 1-.2 1.5v7.3h-2.6zm15.5 13.3c-1 .1-2-.3-2.7-1-.4-.3-.6-.8-.8-1.2-.2-.5-.3-1-.3-1.5v-7.4h-2.3v-2.2h2.3v-4.1h2.6v4.1h3.2v2.2h-3.3v6.6c0 .3 0 .7.1 1s.2.6.4.8c.3.3.7.5 1.2.5.2 0 .4-.1.5-.1.2 0 .4-.1.6-.2l.8 2.2c-.8.3-1.5.4-2.3.3zm4.4-13.3h2.4v1.8h.1c.4-.7 1-1.2 1.7-1.6.8-.4 1.6-.6 2.5-.6.7-.1 1.4 0 2 .2.7.3 1.2.7 1.7 1.1 1 1.1 1.4 2.6 1.3 4v8.3h-2.5v-8.2c0-.4 0-.8-.2-1.3-.1-.4-.4-.8-.7-1.1s-.7-.5-1.1-.7c-.4-.1-.8-.1-1.3-.1s-.9.1-1.4.3c-.4.2-.8.5-1.1.9-.6.8-1 1.8-1 2.9v7.3h-2.5zm20.6 13.6c-.9 0-1.8-.1-2.6-.5-.9-.3-1.6-.8-2.2-1.5s-1.1-1.5-1.5-2.3c-.3-.9-.4-1.8-.4-2.8-.1-1.8.6-3.6 1.8-5 .6-.7 1.4-1.2 2.2-1.5s1.6-.5 2.5-.5 1.7.1 2.5.4c.8.4 1.6.8 2.2 1.5 1.2 1.4 1.8 3.4 1.7 5.3v.2h-10.4c0 .6.1 1.2.3 1.7.2.6.6 1.1 1 1.5s1 .8 1.6 1c.7.2 1.4.3 2 .2.7-.1 1.3-.4 1.8-.8.6-.4 1-.9 1.3-1.5l2.2 1.1c-.6 1-1.4 1.9-2.5 2.6-1 .6-2.3.9-3.5.9zm3.6-8.6c0-.5-.1-.9-.3-1.3s-.5-.7-.8-1c-.7-.6-1.7-.9-2.7-.9-.9 0-1.7.3-2.4.9s-1.2 1.4-1.4 2.3zm7.3 8.2h-2.4v-13.2h2.3v2.1h.1c.3-.7.9-1.4 1.6-1.8s1.5-.7 2.3-.7c.6 0 1.2.1 1.8.3l-.7 2.4c-.5-.1-1-.2-1.5-.2s-.9.1-1.3.3c-.5.2-.8.5-1.1.9-.7.7-1.1 1.6-1.1 2.6zm-73.7-30.6v1.7h4c0 .5-.1 1-.3 1.4-.3.5-.6.8-.9 1.2-.9.6-2 .9-3.1.8s-2.1-.6-2.8-1.3c-.5-.5-.8-1-1-1.5s-.3-1.1-.3-1.7.1-1.2.3-1.7c.2-.6.5-1.1 1-1.5.4-.4.9-.7 1.4-.9.5-.3 1.1-.4 1.7-.3 1.1-.1 2.2.4 3 1.2l1.2-1.2c-.5-.6-1.2-1-1.9-1.3s-1.5-.4-2.3-.4c-1.1-.1-2.2.2-3.1.7-1 .6-1.8 1.4-2.4 2.3-.4.7-.6 1.5-.7 2.3-.2.8-.1 1.6.1 2.4s.6 1.5 1.1 2.1c.5.7 1.1 1.2 1.9 1.6.9.6 2 .9 3.1.9.7 0 1.5-.1 2.2-.4s1.3-.7 1.9-1.2c.5-.5 1-1.2 1.3-1.9.2-.7.4-1.5.3-2.2.1-.4.1-.7 0-1.1zm10.3-1.2c-.5 0-1 .1-1.5.3s-.9.5-1.3.9-.7.8-.9 1.3-.3 1-.2 1.5c-.1.6 0 1.1.2 1.6s.5 1 .8 1.4c.4.4.9.7 1.4.9s1 .4 1.5.4c.6 0 1.1-.2 1.6-.4s1-.5 1.3-.9c.4-.4.7-.9.9-1.4s.2-1 .2-1.6c0-.5-.1-1-.3-1.5s-.5-.9-.8-1.3c-.4-.3-.8-.6-1.3-.8s-1-.3-1.6-.3zm1.6 5.7c-.2.2-.4.4-.7.5s-.6.2-.9.2-.6-.1-.8-.2c-.3-.1-.5-.3-.8-.5-.4-.5-.6-1-.6-1.7 0-.3 0-.6.2-.9.1-.3.2-.5.4-.8.3-.2.5-.4.8-.5.2-.1.5-.1.8-.1s.6 0 .9.1.5.3.7.5c.2.3.4.5.5.8s.2.6.2.9c0 .7-.3 1.2-.7 1.7zm22.3-9.6h-1.7v11.6h1.7zm-15.2 3.9c-.5 0-1 .1-1.5.3s-1 .5-1.3.9c-.4.3-.7.8-.9 1.3s-.3 1-.3 1.5c0 1.1.5 2.1 1.2 2.9.7.7 1.8 1.1 2.8 1.1 1.1 0 2.1-.4 2.8-1.1.8-.8 1.2-1.8 1.2-2.9 0-.5-.1-1-.3-1.5s-.5-.9-.9-1.3c-.3-.3-.8-.6-1.3-.8-.4-.2-1-.3-1.5-.3zm1.6 5.7c-.2.2-.5.4-.7.5-.3.1-.6.2-.9.2s-.6-.1-.9-.2c-.2-.1-.5-.3-.7-.5-.4-.5-.6-1-.6-1.7 0-.3 0-.6.1-.9s.3-.5.5-.8c.2-.2.5-.4.7-.5.3-.1.6-.2.9-.2s.6.1.9.2.5.3.7.5c.2.3.4.5.5.8s.2.6.1.9c0 .7-.2 1.2-.6 1.7zm18.4.7c-.4 0-.8-.1-1.1-.3-.4-.2-.6-.5-.8-.9l5.3-2.2-.2-.5c-.1-.3-.3-.7-.5-1s-.5-.6-.8-.8-.6-.4-.9-.5c-.4-.1-.8-.2-1.1-.1-.5-.1-1 0-1.5.2s-.9.5-1.2.8c-.4.4-.7.9-.9 1.4-.1.5-.2 1-.2 1.5 0 .6.1 1.1.3 1.6s.5.9.8 1.3c.4.4.9.7 1.5.9s1.1.3 1.7.2 1.2-.3 1.7-.6.9-.7 1.2-1.1l-1.3-1c-.2.3-.5.6-.9.8-.3.2-.7.3-1.1.3zm-1.6-4.2c.2-.2.4-.4.7-.5.2-.1.5-.2.8-.2s.6.1.9.3c.3.1.5.3.6.6l-3.6 1.4c0-.3.1-.6.2-.8.1-.3.2-.6.4-.8zm-7.7-1.3c-.3-.3-.6-.5-1-.7-.4-.1-.7-.2-1.1-.2-.5 0-1 .1-1.5.3s-.9.5-1.2.9c-.7.7-1.1 1.7-1.1 2.8 0 1 .4 2 1.1 2.8.3.4.7.6 1.2.8s1 .3 1.5.4c.4 0 .8-.1 1.1-.3.4-.1.7-.4 1-.6v.4c0 1.6-.7 2.5-2.2 2.5-.4 0-.8-.1-1.2-.4-.3-.3-.6-.6-.8-1l-1.5.6c.2.4.4.7.6 1s.5.5.8.7.6.4 1 .5.8.2 1.1.2c.6 0 1.1-.1 1.6-.3.4-.2.9-.5 1.2-.9.7-.9 1.1-2 1-3.1v-7.1h-1.6zm-.5 4.8c-.2.2-.5.4-.7.5-.3.1-.6.2-.8.2-.3 0-.6-.1-.9-.2s-.5-.3-.7-.5c-.4-.5-.7-1.1-.6-1.7-.1-.6.2-1.3.6-1.7.2-.2.4-.4.7-.5.3-.2.6-.2.9-.2.2 0 .5 0 .8.2.2.1.5.3.7.5.4.5.6 1.1.6 1.7 0 .7-.2 1.3-.6 1.7zm-45.1-15.6h-12.6v48h12.6z"/></svg>